# xmcd
#
# Track frame offsets:
#	150
#	20077
#	42392
#	65285
#	86112
#	111042
#	131395
#	159522
#
# Disc length: 2544 seconds
#
# Revision: 1
# Processed by: cddbd v1.5PL3 Copyright (c) Steve Scherf et al.
# Submitted via: CDex 1.50Beta5
#
DISCID=6409ee08
DTITLE=クイヌパナ - CHANGE THE WORLD
DYEAR=2003
DGENRE=Rock
TTITLE0=(Pana)Change The World
TTITLE1=赤い嵐
TTITLE2=WHITE
TTITLE3=ebony star
TTITLE4=白い絆
TTITLE5=FUNKACHA!
TTITLE6=赤い嵐(sonicballoon 3Dee remix)
TTITLE7=WHITE(WHITE LADY ON WAX DUB)
EXTD=
EXTT0=
EXTT1=
EXTT2=
EXTT3=
EXTT4=
EXTT5=
EXTT6=
EXTT7=
PLAYORDER=
